<svg version="1.1" viewBox="0.0 0.0 960.0 1133.8582677165355" fill="none" stroke="none" stroke-linecap="square" stroke-miterlimit="10" xmlns:xlink="http://www.w3.org/1999/xlink" xmlns="http://www.w3.org/2000/svg"><clipPath id="g13b4e3fd8ca_0_17.0"><path d="m0 0l960.0 0l0 1133.8583l-960.0 0l0 -1133.8583z" clip-rule="nonzero"/></clipPath><g clip-path="url(#g13b4e3fd8ca_0_17.0)"><path fill="#000000" fill-opacity="0.0" d="m0 0l960.0 0l0 1133.8583l-960.0 0z" fill-rule="evenodd"/><path fill="#000000" fill-opacity="0.0" d="m140.36766 40.550575c18.195984 23.654419 66.02582 116.452324 109.17586 141.92651c43.150055 25.474197 110.73358 33.273407 149.7244 10.91864c38.990814 -22.354767 39.770782 -123.73185 84.22049 -145.04724c44.449707 -21.315397 133.60895 5.717411 182.47766 17.154858c48.868774 11.437447 84.22095 17.677605 110.734924 51.46982c26.513977 33.792213 72.78345 101.63517 48.34906 151.28348c-24.434326 49.648285 -144.00696 116.97287 -194.95532 146.6063c-50.948425 29.633423 -69.14441 33.273834 -110.734924 31.194214c-41.590576 -2.0796204 -97.737976 -38.213013 -138.80841 -43.671906c-41.070435 -5.458893 -67.06387 -1.8184509 -107.61417 10.91864c-40.55031 12.737091 -131.37796 33.13034 -135.68767 65.50394c-4.309723 32.373566 79.67673 102.743225 109.82939 128.73755c30.15268 25.994263 31.685028 39.58661 71.08661 27.228333c39.40158 -12.358276 120.35303 -77.72308 165.32285 -101.37799c44.969788 -23.654816 69.14435 -43.670563 104.49603 -40.551147c35.351746 3.1194153 79.28088 35.353027 107.6142 59.2677c28.333313 23.914734 55.36743 48.088806 62.385803 84.22046c7.0183716 36.131714 7.0179443 99.55731 -20.275574 132.56958c-27.293518 33.012268 -88.37836 54.58661 -143.48553 65.50397c-55.107178 10.917297 -139.58838 0.25982666 -187.1575 0c-47.569122 -0.2598877 -57.446625 -14.036316 -98.25723 -1.559082c-40.810577 12.477234 -120.35257 56.407288 -146.60628 76.42255c-26.253723 20.01532 -18.454514 28.332947 -10.916016 43.66931c7.538498 15.336426 39.2511 31.9729 56.146973 48.34906c16.89589 16.37622 24.433517 42.109863 45.228348 49.908203c20.79483 7.79834 41.849518 14.557739 79.54068 -3.118164c37.691162 -17.675781 102.41644 -79.802246 146.6063 -102.93701c44.18988 -23.134705 81.1015 -39.770325 118.53284 -35.8714c37.431335 3.8989868 85.0 47.827698 106.055115 59.265137c21.055115 11.437439 16.896301 7.7996216 20.275574 9.359558" fill-rule="evenodd"/><path stroke="#0ec9ac" stroke-width="1.0" stroke-linejoin="round" stroke-linecap="butt" stroke-dasharray="4.0,3.0" d="m140.36766 40.550575c18.195984 23.654419 66.02582 116.45231 109.17586 141.92651c43.150055 25.474182 110.73358 33.27339 149.7244 10.91864c38.990814 -22.354782 39.770813 -123.731865 84.22049 -145.04726c44.449646 -21.315397 133.60889 5.717411 182.47766 17.154858c48.868835 11.437439 84.22095 17.677597 110.734985 51.46982c26.513916 33.792213 72.78345 101.63517 48.34906 151.28348c-24.434387 49.648285 -144.00702 116.97287 -194.95544 146.6063c-50.948364 29.633423 -69.14435 33.273865 -110.73486 31.194214c-41.590576 -2.0795898 -97.73801 -38.213013 -138.80841 -43.671906c-41.070435 -5.458893 -67.06387 -1.8184509 -107.61417 10.91861c-40.55031 12.737122 -131.37796 33.13037 -135.68768 65.50394c-4.3097076 32.373627 79.67674 102.743256 109.82941 128.73752c30.15268 25.994385 31.685028 39.58667 71.08661 27.228394c39.40158 -12.358276 120.35303 -77.723145 165.32285 -101.37799c44.969788 -23.654846 69.14435 -43.670593 104.49603 -40.551147c35.351746 3.1194153 79.28088 35.353027 107.61426 59.2677c28.333313 23.914673 55.36743 48.088806 62.385803 84.22046c7.0183716 36.131714 7.0178833 99.55731 -20.275574 132.56958c-27.29358 33.012268 -88.37848 54.58667 -143.4856 65.50397c-55.107178 10.917297 -139.58841 0.25982666 -187.1575 0c-47.569122 -0.25982666 -57.446655 -14.036316 -98.25723 -1.559082c-40.810577 12.477234 -120.352554 56.407288 -146.6063 76.42261c-26.253708 20.015259 -18.454498 28.332825 -10.916 43.66931c7.538498 15.336365 39.2511 31.97284 56.146973 48.34906c16.895905 16.37616 24.433517 42.10968 45.228348 49.908142c20.79486 7.79834 41.84955 14.557739 79.54068 -3.118164c37.691162 -17.675781 102.41647 -79.80231 146.6063 -102.93695c44.18982 -23.134766 81.1015 -39.770386 118.53284 -35.8714c37.431274 3.8989258 85.0 47.827576 106.055115 59.265076c10.527588 5.71875 14.751648 7.66864 16.766296 8.38385l0.20422363 0.06958008" fill-rule="evenodd"/><path fill="#0ec9ac" stroke="#0ec9ac" stroke-width="1.0" stroke-linecap="butt" d="m720.36707 976.9883l-1.381958 0.78723145l3.2771606 -0.26757812l-2.682434 -1.9015503z" fill-rule="evenodd"/></g></svg>