<?xml version="1.0" encoding="UTF-8" standalone="no"?>
<!-- Generator: Adobe Illustrator 22.1.0, SVG Export Plug-In . SVG Version: 6.00 Build 0)  -->

<svg
   version="1.1"
   id="Layer_1"
   x="0px"
   y="0px"
   viewBox="0 0 76.5 77.7"
   style="enable-background:new 0 0 76.5 77.7;"
   xml:space="preserve"
   sodipodi:docname="cmc.svg"
   inkscape:version="1.1.1 (3bf5ae0d25, 2021-09-20)"
   xmlns:inkscape="http://www.inkscape.org/namespaces/inkscape"
   xmlns:sodipodi="http://sodipodi.sourceforge.net/DTD/sodipodi-0.dtd"
   xmlns="http://www.w3.org/2000/svg"
   xmlns:svg="http://www.w3.org/2000/svg"><defs
   id="defs9" /><sodipodi:namedview
   id="namedview7"
   pagecolor="#ffffff"
   bordercolor="#999999"
   borderopacity="1"
   inkscape:pageshadow="0"
   inkscape:pageopacity="0"
   inkscape:pagecheckerboard="0"
   showgrid="false"
   inkscape:zoom="4.9142558"
   inkscape:cx="37.340343"
   inkscape:cy="51.991595"
   inkscape:window-width="1920"
   inkscape:window-height="1009"
   inkscape:window-x="-8"
   inkscape:window-y="-8"
   inkscape:window-maximized="1"
   inkscape:current-layer="Layer_1" />
<style
   type="text/css"
   id="style2">
	.st0{fill:#17181B;}
</style>
<path
   class="st0"
   d="m 65.913078,46.359202 c -1.215705,0.845285 -2.797431,0.950948 -4.117699,0.277361 -1.516368,-0.871699 -2.33991,-2.905664 -2.33991,-5.666047 v -8.492463 c 0,-4.081142 -1.594787,-6.973596 -4.274556,-7.76605 -4.509862,-1.333966 -7.882452,4.252836 -9.176585,6.35284 L 38.017303,44.127124 V 28.185592 c -0.09151,-3.671706 -1.267991,-5.877367 -3.516387,-6.537746 -1.477142,-0.435849 -3.699391,-0.26415 -5.856279,3.064157 L 10.788204,53.676195 C 8.4090888,49.093171 7.1672445,43.981843 7.1933865,38.804475 c 0,-17.460404 13.8040965,-31.658537 30.8239165,-31.658537 17.019814,0 30.863126,14.198133 30.863126,31.658537 v 0.09247 c 0,0 0,0.06603 0,0.09244 0.169938,3.367931 -0.915042,6.062273 -2.967351,7.369821 z m 9.869399,-7.554727 V 38.632776 C 75.638681,17.368596 58.749581,0.10630508 38.017303,0.10630508 c -20.732287,0 -37.72596015,17.35474192 -37.72596015,38.69816992 0,21.343428 16.91524315,38.69817 37.72596015,38.69817 9.542599,0 18.719183,-3.698119 25.647375,-10.328316 1.398715,-1.333966 1.477144,-3.552837 0.18301,-4.979254 -1.25492,-1.400003 -3.385667,-1.50566 -4.784373,-0.237737 0,0 -0.01307,0.0132 -0.01307,0.0132 C 46.827879,73.68565 27.520451,73.170555 15.925536,60.821482 15.63795,60.517708 15.363439,60.213933 15.088923,59.896951 L 31.154485,33.785594 v 12.0453 c 0,5.784916 2.222249,7.660388 4.078479,8.215105 1.856231,0.554718 4.719014,0.1717 7.699444,-4.728309 l 8.889,-14.528323 c 0.274511,-0.462262 0.53595,-0.871699 0.784328,-1.215097 v 7.383031 c 0,5.415104 2.143809,9.733979 5.921639,11.873602 3.490239,1.901889 7.725581,1.73019 11.058961,-0.449057 4.143842,-2.720758 6.405304,-7.647182 6.170008,-13.577379 z"
   id="path4"
   style="stroke-width:0.131395;fill:#ffffff" />
</svg>
