<svg width="16" height="16" viewBox="0 0 16 16" fill="none" xmlns="http://www.w3.org/2000/svg">
<path d="M14.2846 11.4287C14.2846 11.7318 14.1642 12.0225 13.9499 12.2368C13.7355 12.4511 13.4448 12.5715 13.1417 12.5715H5.71317C5.41007 12.5715 5.11938 12.4511 4.90505 12.2368C4.69072 12.0225 4.57031 11.7318 4.57031 11.4287V1.71439C4.57031 1.41129 4.69072 1.1206 4.90505 0.906268C5.11938 0.691941 5.41007 0.571533 5.71317 0.571533H10.856L14.2846 4.0001V11.4287Z" stroke="white" stroke-width="1.14286" stroke-linecap="round" stroke-linejoin="round"/>
<path d="M10.8577 15.4286H2.8577C2.5546 15.4286 2.26391 15.3082 2.04958 15.0938C1.83525 14.8795 1.71484 14.5888 1.71484 14.2857V4" stroke="white" stroke-width="1.14286" stroke-linecap="round" stroke-linejoin="round"/>
</svg>
