<?xml version="1.0" encoding="UTF-8" standalone="no"?>
<svg
   aria-label="LinkedIn"
   viewBox="0 0 24 24"
   version="1.1"
   id="svg4"
   sodipodi:docname="linkedin.svg"
   inkscape:version="1.1.1 (3bf5ae0d25, 2021-09-20)"
   xmlns:inkscape="http://www.inkscape.org/namespaces/inkscape"
   xmlns:sodipodi="http://sodipodi.sourceforge.net/DTD/sodipodi-0.dtd"
   xmlns="http://www.w3.org/2000/svg"
   xmlns:svg="http://www.w3.org/2000/svg">
  <defs
     id="defs8" />
  <sodipodi:namedview
     id="namedview6"
     pagecolor="#ffffff"
     bordercolor="#999999"
     borderopacity="1"
     inkscape:pageshadow="0"
     inkscape:pageopacity="0"
     inkscape:pagecheckerboard="0"
     showgrid="false"
     inkscape:zoom="31.819805"
     inkscape:cx="19.469007"
     inkscape:cy="14.25213"
     inkscape:window-width="1366"
     inkscape:window-height="697"
     inkscape:window-x="1912"
     inkscape:window-y="306"
     inkscape:window-maximized="1"
     inkscape:current-layer="svg4"
     showguides="false" />
  <path
     fill="#0077b5"
     fillRule="evenodd"
     d="m 20.452,20.45 h -3.56 v -5.57 c 0,-1.328 -0.022,-3.036 -1.85,-3.036 -1.851,0 -2.134,1.447 -2.134,2.942 V 20.45 H 9.352 V 8.997 h 3.413 v 1.566 h 0.049 c 0.475,-0.9 1.636,-1.85 3.367,-1.85 3.605,0 4.27,2.371 4.27,5.456 V 20.45 Z M 5.339,7.433 c -2.7533321,0 -2.7533321,-4.13 0,-4.13 2.7533321,0 2.7533321,4.13 0,4.13 z M 7.12,20.45 H 3.558 V 8.997 H 7.12 Z M 0.02576399,0.03142697 C 0.01162798,7.6181143 -0.08788801,16.285466 0.03142697,23.958523 5.9020583,23.950129 18.116455,23.937146 23.974236,23.937146 24.028645,19.542979 24,5.9468243 24,0.08861793 19.375914,0.02508564 6.1631792,0.02303146 0.02576399,0.03142697 Z"
     id="path2"
     sodipodi:nodetypes="ccsssccccccssccssscccccccccc" />
</svg>
