<svg
  width="100%"
  height="100%"
  xmlns="http://www.w3.org/2000/svg"
  viewBox="0 0 427 99"
>
  <path
    fill="#7b3fe4"
    d="M 107.294 50.458 L 107.294 70.884 C 107.294 72.152 106.945 73.409 106.288 74.515 C 105.629 75.619 104.699 76.536 103.578 77.19 L 85.392 87.377 C 84.27 88.031 82.979 88.37 81.676 88.37 C 80.372 88.37 79.081 88.031 77.96 87.377 L 59.773 77.19 C 58.652 76.548 57.708 75.619 57.064 74.515 C 56.406 73.409 56.07 72.166 56.057 70.884 L 56.057 65.156 L 65.363 59.892 L 65.363 69.852 L 81.651 79.049 L 97.936 69.852 L 97.936 51.486 L 81.651 42.293 L 43.488 63.811 C 42.352 64.439 41.074 64.765 39.769 64.765 C 38.467 64.765 37.189 64.439 36.054 63.811 L 17.87 53.574 C 16.76 52.919 15.843 51.991 15.21 50.886 C 14.579 49.779 14.242 48.536 14.242 47.279 L 14.242 26.854 C 14.242 25.586 14.591 24.33 15.25 23.224 C 15.908 22.117 16.837 21.201 17.961 20.547 L 36.142 10.361 C 37.268 9.721 38.557 9.368 39.859 9.368 C 41.165 9.368 42.454 9.707 43.579 10.361 L 61.763 20.547 C 62.886 21.188 63.826 22.117 64.472 23.224 C 65.131 24.33 65.465 25.573 65.478 26.854 L 65.478 32.582 L 56.11 37.809 L 56.11 27.897 L 39.822 18.702 L 23.535 27.897 L 23.535 46.237 L 39.822 55.432 L 77.985 33.912 C 79.12 33.286 80.397 32.959 81.702 32.959 C 83.005 32.959 84.284 33.286 85.419 33.912 L 103.602 44.152 C 104.725 44.805 105.653 45.722 106.301 46.828 C 106.945 47.934 107.294 49.177 107.294 50.446 L 107.294 50.458 Z"
  ></path>
  <path
    fill="#ffffff"
    d="M 127.659 36.567 L 134.252 36.567 L 134.252 38.739 C 134.981 37.945 135.924 37.345 137.101 36.917 C 138.268 36.465 139.614 36.247 141.136 36.247 C 143.35 36.247 145.273 36.668 146.917 37.516 C 148.561 38.358 149.831 39.557 150.709 41.115 C 151.625 42.672 152.081 44.479 152.081 46.535 C 152.081 48.59 151.587 50.397 150.606 51.955 C 149.663 53.482 148.318 54.68 146.572 55.553 C 144.835 56.394 142.826 56.822 140.548 56.822 C 139.184 56.822 137.951 56.635 136.848 56.269 C 135.738 55.903 134.869 55.389 134.243 54.727 L 134.243 64.578 L 127.649 64.578 L 127.649 36.567 L 127.659 36.567 Z M 133.869 46.535 C 133.869 48.194 134.411 49.541 135.485 50.568 C 136.56 51.573 137.979 52.072 139.754 52.072 C 141.528 52.072 142.901 51.573 143.975 50.568 C 145.05 49.541 145.591 48.194 145.591 46.535 C 145.591 44.876 145.058 43.506 143.975 42.501 C 142.901 41.473 141.49 40.959 139.754 40.959 C 138.017 40.959 136.56 41.473 135.485 42.501 C 134.411 43.506 133.869 44.844 133.869 46.535 Z M 167.053 56.814 C 164.653 56.814 162.486 56.378 160.553 55.506 C 158.62 54.61 157.126 53.38 156.051 51.83 C 154.977 50.25 154.435 48.482 154.435 46.527 C 154.435 44.572 154.977 42.82 156.051 41.27 C 157.126 39.69 158.629 38.459 160.553 37.595 C 162.486 36.699 164.644 36.247 167.053 36.247 C 169.463 36.247 171.62 36.699 173.554 37.595 C 175.487 38.467 176.981 39.69 178.055 41.27 C 179.129 42.828 179.672 44.58 179.672 46.527 C 179.672 48.474 179.139 50.242 178.055 51.83 C 176.981 53.387 175.478 54.61 173.554 55.506 C 171.62 56.378 169.463 56.814 167.053 56.814 Z M 161.076 46.535 C 161.076 48.17 161.627 49.502 162.739 50.529 C 163.841 51.558 165.288 52.072 167.053 52.072 C 168.819 52.072 170.266 51.558 171.368 50.529 C 172.471 49.502 173.03 48.17 173.03 46.535 C 173.03 44.9 172.48 43.529 171.368 42.501 C 170.266 41.473 168.819 40.959 167.053 40.959 C 165.288 40.959 163.841 41.473 162.739 42.501 C 161.636 43.529 161.076 44.876 161.076 46.535 Z M 183.659 27.907 L 190.253 27.907 L 190.253 56.502 L 183.659 56.502 L 183.659 27.907 Z M 202.012 56.339 L 193.335 36.567 L 200.069 36.567 L 205.094 49.416 L 210.072 36.567 L 216.853 36.567 L 208.176 56.417 L 204.805 64.563 L 198.501 64.563 L 202.012 56.339 Z M 228.872 56.814 C 225.361 56.814 222.597 55.888 220.57 54.05 C 218.581 52.181 217.581 49.673 217.581 46.535 C 217.581 44.479 218.02 42.672 218.907 41.115 C 219.823 39.557 221.121 38.358 222.793 37.516 C 224.465 36.675 226.463 36.247 228.77 36.247 C 230.189 36.247 231.469 36.458 232.608 36.878 C 233.776 37.276 234.701 37.829 235.364 38.537 L 235.364 36.559 L 242.004 36.559 L 242.004 57.678 C 242.004 59.758 241.183 61.424 239.539 62.663 C 237.895 63.932 235.71 64.563 232.991 64.563 L 220.943 64.563 L 220.943 60.248 L 231.946 60.248 C 232.954 60.248 233.776 59.945 234.411 59.338 C 235.074 58.761 235.411 58.006 235.411 57.087 L 235.411 54.478 C 234.813 55.218 233.925 55.794 232.758 56.215 C 231.591 56.612 230.292 56.807 228.864 56.807 L 228.872 56.814 Z M 224.082 46.535 C 224.082 48.225 224.605 49.564 225.65 50.568 C 226.724 51.573 228.154 52.072 229.919 52.072 C 231.684 52.072 233.113 51.573 234.187 50.568 C 235.261 49.564 235.803 48.225 235.803 46.535 C 235.803 44.844 235.261 43.506 234.187 42.501 C 233.113 41.473 231.684 40.959 229.919 40.959 C 228.154 40.959 226.724 41.473 225.65 42.501 C 224.605 43.506 224.082 44.844 224.082 46.535 Z M 258.629 56.814 C 256.229 56.814 254.062 56.378 252.129 55.506 C 250.195 54.61 248.701 53.38 247.627 51.83 C 246.553 50.25 246.011 48.482 246.011 46.527 C 246.011 44.572 246.544 42.82 247.627 41.27 C 248.701 39.69 250.205 38.459 252.129 37.595 C 254.062 36.699 256.219 36.247 258.629 36.247 C 261.038 36.247 263.196 36.699 265.129 37.595 C 267.063 38.467 268.557 39.69 269.631 41.27 C 270.705 42.828 271.247 44.58 271.247 46.527 C 271.247 48.474 270.705 50.242 269.631 51.83 C 268.557 53.387 267.054 54.61 265.129 55.506 C 263.196 56.378 261.038 56.814 258.629 56.814 Z M 252.652 46.535 C 252.652 48.17 253.203 49.502 254.314 50.529 C 255.417 51.558 256.864 52.072 258.629 52.072 C 260.394 52.072 261.842 51.558 262.944 50.529 C 264.046 49.502 264.606 48.17 264.606 46.535 C 264.606 44.9 264.055 43.529 262.944 42.501 C 261.842 41.473 260.394 40.959 258.629 40.959 C 256.864 40.959 255.417 41.473 254.314 42.501 C 253.212 43.529 252.652 44.876 252.652 46.535 Z M 274.852 36.567 L 281.492 36.567 L 281.492 39.331 C 282.156 38.358 283.118 37.602 284.388 37.081 C 285.648 36.528 287.106 36.247 288.75 36.247 C 290.525 36.247 292.065 36.575 293.4 37.237 C 294.764 37.898 295.801 38.817 296.529 40.001 C 297.286 41.184 297.669 42.548 297.669 44.074 L 297.669 56.495 L 291.028 56.495 L 291.028 45.304 C 291.028 44.089 290.598 43.1 289.749 42.337 C 288.899 41.543 287.788 41.154 286.434 41.154 C 284.977 41.154 283.79 41.574 282.875 42.423 C 281.96 43.24 281.502 44.292 281.502 45.585 L 281.502 56.502 L 274.862 56.502 L 274.862 36.567 L 274.852 36.567 Z M 314.9 28.818 L 324.67 28.818 C 327.799 28.818 330.619 29.371 333.113 30.477 C 335.644 31.56 337.615 33.14 339.044 35.22 C 340.501 37.299 341.229 39.783 341.229 42.656 C 341.229 45.53 340.501 48.007 339.044 50.094 C 337.624 52.173 335.644 53.769 333.113 54.875 C 330.619 55.957 327.799 56.495 324.67 56.495 L 314.9 56.495 L 314.9 28.818 Z M 324.577 53.458 C 326.818 53.458 328.873 53.076 330.741 52.313 C 332.637 51.55 334.159 50.358 335.298 48.754 C 336.438 47.118 337.008 45.086 337.008 42.665 C 337.008 40.242 336.438 38.225 335.298 36.614 C 334.159 34.978 332.646 33.779 330.741 33.015 C 328.873 32.252 326.818 31.871 324.577 31.871 L 318.936 31.871 L 318.936 53.465 L 324.577 53.465 L 324.577 53.458 Z M 351.493 46.02 L 363.495 46.02 L 357.517 32.969 L 351.493 46.02 Z M 355.669 28.818 L 359.32 28.818 L 372.555 56.502 L 368.333 56.502 L 364.915 49.027 L 350.121 49.027 L 346.655 56.502 L 342.434 56.502 L 355.669 28.818 Z M 390.058 56.814 C 386.994 56.814 384.21 56.206 381.708 54.992 C 379.242 53.754 377.299 52.064 375.87 49.93 C 374.479 47.765 373.788 45.343 373.788 42.656 C 373.788 39.97 374.479 37.555 375.87 35.422 C 377.29 33.257 379.242 31.575 381.708 30.36 C 384.202 29.122 386.984 28.499 390.058 28.499 C 393.13 28.499 395.895 29.122 398.36 30.36 C 400.854 31.575 402.815 33.257 404.244 35.422 C 405.664 37.555 406.383 39.97 406.383 42.656 C 406.383 45.343 405.674 47.773 404.244 49.93 C 402.825 52.064 400.863 53.754 398.36 54.992 C 395.895 56.206 393.13 56.814 390.058 56.814 Z M 377.962 42.656 C 377.962 44.736 378.486 46.636 379.532 48.35 C 380.577 50.039 382.016 51.37 383.846 52.345 C 385.714 53.294 387.778 53.769 390.058 53.769 C 392.336 53.769 394.39 53.294 396.222 52.345 C 398.09 51.37 399.537 50.039 400.584 48.35 C 401.658 46.636 402.199 44.736 402.199 42.656 C 402.199 40.577 401.658 38.685 400.584 37.003 C 399.537 35.289 398.09 33.958 396.222 33.008 C 394.39 32.034 392.327 31.543 390.058 31.543 C 387.788 31.543 385.714 32.034 383.846 33.008 C 382.016 33.958 380.577 35.289 379.532 37.003 C 378.486 38.692 377.962 40.577 377.962 42.656 Z"
  ></path>
</svg>