<?xml version="1.0" encoding="UTF-8" standalone="no"?>
<svg
   fill="none"
   height="32"
   viewBox="0 0 32 32"
   width="32"
   version="1.1"
   id="svg6"
   sodipodi:docname="telegram.svg"
   inkscape:version="1.1.1 (3bf5ae0d25, 2021-09-20)"
   xmlns:inkscape="http://www.inkscape.org/namespaces/inkscape"
   xmlns:sodipodi="http://sodipodi.sourceforge.net/DTD/sodipodi-0.dtd"
   xmlns="http://www.w3.org/2000/svg"
   xmlns:svg="http://www.w3.org/2000/svg">
  <defs
     id="defs10">
    <inkscape:path-effect
       effect="powerclip"
       id="path-effect854"
       is_visible="true"
       lpeversion="1"
       inverse="true"
       flatten="false"
       hide_clip="false"
       message="Χρήση κανόνα γεμίσματος μονά-ζυγά στον διάλογο &lt;b&gt;γέμισμα και την πινελιά&lt;/b&gt; εάν δεν υπάρχει ισιωμένο αποτέλεσμα μετά τη μετατροπή του αποκόμματος σε μονοπάτια." />
    <clipPath
       clipPathUnits="userSpaceOnUse"
       id="clipPath850">
      <path
         d="m 8.09992,15.7083 c 4.29498,-1.8712 7.15898,-3.1049 8.59198,-3.7009 4.0915,-1.7018 4.9416,-1.9974 5.4958,-2.0073 0.1218,-0.00205 0.3943,0.0282 0.5709,0.1714 0.149,0.1209 0.19,0.2843 0.2097,0.399 0.0196,0.1146 0.044,0.3759 0.0246,0.58 -0.2217,2.3296 -1.1811,7.983 -1.6692,10.5922 -0.2065,1.1041 -0.6132,1.4743 -1.0069,1.5105 -0.8555,0.0787 -1.5052,-0.5654 -2.3339,-1.1086 -1.2967,-0.85 -2.0292,-1.3792 -3.2879,-2.2086 -1.4546,-0.9586 -0.5116,-1.4854 0.3174,-2.3464 0.2169,-0.2253 3.9866,-3.6541 4.0595,-3.9652 0.0092,-0.0389 0.0176,-0.1839 -0.0685,-0.2605 -0.0862,-0.0765 -0.2133,-0.0503 -0.3051,-0.0295 -0.13,0.0295 -2.2015,1.3987 -6.2144,4.1075 -0.588,0.4038 -1.1206,0.6005 -1.5977,0.5902 -0.5261,-0.0114 -1.53798,-0.2975 -2.29022,-0.542 -0.92265,-0.2999 -1.65596,-0.4585 -1.5921,-0.9678 0.03326,-0.2653 0.3986,-0.5367 1.09604,-0.814 z"
         fill="#ffffff"
         id="path852"
         style="display:none" />
      <path
         id="lpe_path-effect854"
         class="powerclip"
         d="M -5.1777778,-5.0001313 H 37.059259 V 37.0963 H -5.1777778 Z M 8.09992,15.7083 c -0.69744,0.2773 -1.06278,0.5487 -1.09604,0.814 -0.06386,0.5093 0.66945,0.6679 1.5921,0.9678 0.75224,0.2445 1.76412,0.5306 2.29022,0.542 0.4771,0.0103 1.0097,-0.1864 1.5977,-0.5902 4.0129,-2.7088 6.0844,-4.078 6.2144,-4.1075 0.0918,-0.0208 0.2189,-0.047 0.3051,0.0295 0.0861,0.0766 0.0777,0.2216 0.0685,0.2605 -0.0729,0.3111 -3.8426,3.7399 -4.0595,3.9652 -0.829,0.861 -1.772,1.3878 -0.3174,2.3464 1.2587,0.8294 1.9912,1.3586 3.2879,2.2086 0.8287,0.5432 1.4784,1.1873 2.3339,1.1086 0.3937,-0.0362 0.8004,-0.4064 1.0069,-1.5105 0.4881,-2.6092 1.4475,-8.2626 1.6692,-10.5922 0.0194,-0.2041 -0.005,-0.4654 -0.0246,-0.58 -0.0197,-0.1147 -0.0607,-0.2781 -0.2097,-0.399 -0.1766,-0.1432 -0.4491,-0.17345 -0.5709,-0.1714 -0.5542,0.0099 -1.4043,0.3055 -5.4958,2.0073 -1.433,0.596 -4.297,1.8297 -8.59198,3.7009 z" />
    </clipPath>
  </defs>
  <sodipodi:namedview
     id="namedview8"
     pagecolor="#ffffff"
     bordercolor="#999999"
     borderopacity="1"
     inkscape:pageshadow="0"
     inkscape:pageopacity="0"
     inkscape:pagecheckerboard="0"
     showgrid="false"
     inkscape:zoom="16.875"
     inkscape:cx="15.97037"
     inkscape:cy="11.288889"
     inkscape:window-width="1920"
     inkscape:window-height="1009"
     inkscape:window-x="-8"
     inkscape:window-y="-8"
     inkscape:window-maximized="1"
     inkscape:current-layer="svg6" />
  <path
     d="M 31.977778,0.05925926 5,0 C 2.2385867,-0.00606571 -0.17777778,0.2 -0.17777778,0.2 l 0.0592593,31.718519 C -0.11851852,31.918519 2.23858,32 5,32 h 22 c 2.7614,0 5.059259,0.0963 5.059259,0.0963 L 32.037037,2.8444445 Z"
     fill="#08c"
     id="path2"
     style="fill:#0077b5;fill-opacity:1"
     clip-path="url(#clipPath850)"
     inkscape:path-effect="#path-effect854"
     inkscape:original-d="M 31.977778,0.05925926 5,0 C 2.2385867,-0.00606571 -0.17777778,0.2 -0.17777778,0.2 l 0.0592593,31.718519 C -0.11851852,31.918519 2.23858,32 5,32 h 22 c 2.7614,0 5.059259,0.0963 5.059259,0.0963 L 32.037037,2.8444445 Z"
     sodipodi:nodetypes="csccssccc" />
</svg>
