<?xml version="1.0" encoding="UTF-8" standalone="no"?>
<svg
   viewBox="0 0 512 512"
   version="1.1"
   id="svg6"
   sodipodi:docname="twitter.svg"
   inkscape:version="1.1.1 (3bf5ae0d25, 2021-09-20)"
   xmlns:inkscape="http://www.inkscape.org/namespaces/inkscape"
   xmlns:sodipodi="http://sodipodi.sourceforge.net/DTD/sodipodi-0.dtd"
   xmlns="http://www.w3.org/2000/svg"
   xmlns:svg="http://www.w3.org/2000/svg">
  <defs
     id="defs10">
    <inkscape:path-effect
       effect="powerclip"
       id="path-effect2323"
       is_visible="true"
       lpeversion="1"
       inverse="true"
       flatten="false"
       hide_clip="false"
       message="Χρήση κανόνα γεμίσματος μονά-ζυγά στον διάλογο &lt;b&gt;γέμισμα και την πινελιά&lt;/b&gt; εάν δεν υπάρχει ισιωμένο αποτέλεσμα μετά τη μετατροπή του αποκόμματος σε μονοπάτια." />
    <clipPath
       clipPathUnits="userSpaceOnUse"
       id="clipPath2319">
      <path
         d="m 437,152 a 72,72 0 0 1 -40,12 72,72 0 0 0 32,-40 72,72 0 0 1 -45,17 72,72 0 0 0 -122,65 200,200 0 0 1 -145,-74 72,72 0 0 0 22,94 72,72 0 0 1 -32,-7 72,72 0 0 0 56,69 72,72 0 0 1 -32,1 72,72 0 0 0 67,50 200,200 0 0 1 -105,29 200,200 0 0 0 309,-179 200,200 0 0 0 35,-37"
         fill="#fff"
         id="path2321"
         style="display:none;fill:#ffffff;fill-opacity:1" />
      <path
         id="lpe_path-effect2323"
         style="fill:#ffffff;fill-opacity:1"
         class="powerclip"
         d="M -5,-5 H 517 V 517 H -5 Z m 442,157 a 72,72 0 0 1 -40,12 72,72 0 0 0 32,-40 72,72 0 0 1 -45,17 72,72 0 0 0 -122,65 200,200 0 0 1 -145,-74 72,72 0 0 0 22,94 72,72 0 0 1 -32,-7 72,72 0 0 0 56,69 72,72 0 0 1 -32,1 72,72 0 0 0 67,50 200,200 0 0 1 -105,29 200,200 0 0 0 309,-179 200,200 0 0 0 35,-37" />
    </clipPath>
  </defs>
  <sodipodi:namedview
     id="namedview8"
     pagecolor="#ffffff"
     bordercolor="#999999"
     borderopacity="1"
     inkscape:pageshadow="0"
     inkscape:pageopacity="0"
     inkscape:pagecheckerboard="0"
     showgrid="false"
     inkscape:zoom="1.0546875"
     inkscape:cx="255.52593"
     inkscape:cy="255.52593"
     inkscape:window-width="1920"
     inkscape:window-height="1009"
     inkscape:window-x="-8"
     inkscape:window-y="-8"
     inkscape:window-maximized="1"
     inkscape:current-layer="svg6" />
  <path
     fill="#1da1f2"
     height="512"
     rx="15.000001%"
     width="512"
     id="rect2"
     x="0"
     y="0"
     style="fill:#0077b5;fill-opacity:1"
     ry="0"
     clip-path="url(#clipPath2319)"
     inkscape:path-effect="#path-effect2323"
     d="M 0,0 H 512 V 512 H 0 Z"
     sodipodi:type="rect" />
  <rect
     style="opacity:1;fill:#484537;fill-opacity:0.5;stroke:#00000d;stroke-width:0.0188976;stroke-linejoin:bevel"
     id="rect951"
     width="1.8962963"
     height="1.8962963"
     x="453.21481"
     y="-0.94814813"
     rx="0.94814813" />
</svg>
